<svg width="16" height="16" viewBox="0 0 16 16" fill="none" xmlns="http://www.w3.org/2000/svg">
<path d="M2.75707 12.3186L6.43368 16L6.43368 10.0177L2.97124 6.65487L0.0442285 6.65487L0.0442285 7.46903L2.75707 10.1239L2.75707 12.3186Z" fill="white"/>
<path d="M13.2872 3.68141L9.61055 -4.2009e-07L9.61055 5.9823L13.073 9.34513L16 9.34513L16 8.53097L13.2872 5.87611L13.2872 3.68141Z" fill="white"/>
<path d="M3.69591 2.78198L-4.17691e-07 6.44434L6.03244 6.41772L9.40804 2.96916L9.39502 0.0665327L8.57403 0.0701567L5.90899 2.77221L3.69591 2.78198Z" fill="white"/>
<path d="M12.2912 13.2509L15.9876 9.58899L9.95513 9.61487L6.57908 13.063L6.59174 15.9656L7.41273 15.9621L10.0781 13.2604L12.2912 13.2509Z" fill="white"/>
</svg>
