<svg width="124" height="118" viewBox="0 0 124 118" fill="none" xmlns="http://www.w3.org/2000/svg">
<g clip-path="url(#clip0_27385_139735)">
<path d="M30.3045 20.2785L3.00007 47.3204H47.3697L72.3113 21.8538V0.325308H66.2728L46.5821 20.2785H30.3045Z" fill="white"/>
<path d="M30.3045 20.2785L3.00007 47.3204H47.3697L72.3113 21.8538V0.325308H66.2728L46.5821 20.2785H30.3045Z" fill="url(#paint0_linear_27385_139735)"/>
<path d="M94.3649 97.7285L121.669 70.6866H77.2996L52.3581 96.1532V117.682H58.3965L78.0872 97.7285H94.3649Z" fill="white"/>
<path d="M94.3649 97.7285L121.669 70.6866H77.2996L52.3581 96.1532V117.682H58.3965L78.0872 97.7285H94.3649Z" fill="url(#paint1_linear_27385_139735)"/>
<path d="M101.036 27.1838L73.8727 0L74.0702 44.3692L99.6475 69.1972L121.176 69.1014L121.149 63.0629L101.108 43.4613L101.036 27.1838Z" fill="white"/>
<path d="M101.036 27.1838L73.8727 0L74.0702 44.3692L99.6475 69.1972L121.176 69.1014L121.149 63.0629L101.108 43.4613L101.036 27.1838Z" fill="url(#paint2_linear_27385_139735)"/>
<path d="M23.3897 90.4031L50.5494 117.59L50.3575 73.221L24.7832 48.3899L3.25493 48.483L3.28105 54.5214L23.3193 74.1256L23.3897 90.4031Z" fill="white"/>
<path d="M23.3897 90.4031L50.5494 117.59L50.3575 73.221L24.7832 48.3899L3.25493 48.483L3.28105 54.5214L23.3193 74.1256L23.3897 90.4031Z" fill="url(#paint3_linear_27385_139735)"/>
</g>
<defs>
<linearGradient id="paint0_linear_27385_139735" x1="23.9656" y1="19.1138" x2="107.857" y2="103.005" gradientUnits="userSpaceOnUse">
<stop stop-color="#004BE0"/>
<stop offset="1" stop-color="#8B52FF"/>
</linearGradient>
<linearGradient id="paint1_linear_27385_139735" x1="23.9656" y1="19.1138" x2="107.857" y2="103.005" gradientUnits="userSpaceOnUse">
<stop stop-color="#004BE0"/>
<stop offset="1" stop-color="#8B52FF"/>
</linearGradient>
<linearGradient id="paint2_linear_27385_139735" x1="23.9656" y1="19.1138" x2="107.857" y2="103.005" gradientUnits="userSpaceOnUse">
<stop stop-color="#004BE0"/>
<stop offset="1" stop-color="#8B52FF"/>
</linearGradient>
<linearGradient id="paint3_linear_27385_139735" x1="23.9656" y1="19.1138" x2="107.857" y2="103.005" gradientUnits="userSpaceOnUse">
<stop stop-color="#004BE0"/>
<stop offset="1" stop-color="#8B52FF"/>
</linearGradient>
<clipPath id="clip0_27385_139735">
<rect width="123.93" height="117.997" fill="white"/>
</clipPath>
</defs>
</svg>
