<svg width="223" height="223" viewBox="0 0 223 223" fill="none" xmlns="http://www.w3.org/2000/svg">
<path d="M111.577 7.0144C169.242 7.0144 215.985 53.76 215.985 111.422C215.985 169.086 169.242 215.829 111.577 215.829C53.9149 215.829 7.1709 169.085 7.1709 111.422C7.171 53.76 53.915 7.01444 111.577 7.0144Z" fill="#DCEFFF" stroke="#B7DBFF"/>
<path fill-rule="evenodd" clip-rule="evenodd" d="M162.275 111.753H157.12C157.12 98.8381 151.899 87.1369 143.487 78.6859L147.132 75.0022C156.494 84.4066 162.275 97.408 162.275 111.753Z" fill="#3DA9FF"/>
<path d="M162.275 111.753H157.12C157.12 98.8381 151.899 87.1369 143.487 78.6859L147.132 75.0022C156.494 84.4066 162.275 97.408 162.275 111.753" stroke="white" stroke-opacity="0.1"/>
<path fill-rule="evenodd" clip-rule="evenodd" d="M158.09 159.511L161.736 163.174C148.621 176.327 130.545 184.474 110.548 184.474V179.295C129.121 179.295 145.925 171.733 158.09 159.511Z" fill="#3DA9FF"/>
<path d="M158.09 159.511L161.736 163.174C148.621 176.327 130.545 184.474 110.548 184.474V179.295C129.121 179.295 145.925 171.733 158.09 159.511" stroke="white" stroke-opacity="0.1"/>
<path fill-rule="evenodd" clip-rule="evenodd" d="M154.424 155.828L158.091 159.511C145.925 171.733 129.121 179.295 110.549 179.295V174.095C127.698 174.095 143.207 167.117 154.424 155.828Z" fill="#3DA9FF"/>
<path d="M154.424 155.828L158.091 159.511C145.925 171.733 129.121 179.295 110.549 179.295V174.095C127.698 174.095 143.207 167.117 154.424 155.828" stroke="white" stroke-opacity="0.1"/>
<path fill-rule="evenodd" clip-rule="evenodd" d="M157.12 111.753H151.943C151.943 100.268 147.306 89.867 139.821 82.3479L143.466 78.6858H143.488C151.9 87.1367 157.12 98.838 157.12 111.753Z" fill="#3DA9FF"/>
<path d="M157.12 111.753H151.943C151.943 100.268 147.306 89.867 139.821 82.3479L143.466 78.6858H143.488C151.9 87.1367 157.12 98.838 157.12 111.753" stroke="white" stroke-opacity="0.1"/>
<path fill-rule="evenodd" clip-rule="evenodd" d="M150.779 152.167L154.424 155.826C143.207 167.116 127.698 174.093 110.549 174.093V168.915C126.274 168.915 140.489 162.522 150.779 152.167Z" fill="#3DA9FF"/>
<path d="M150.779 152.167L154.424 155.826C143.207 167.116 127.698 174.093 110.549 174.093V168.915C126.274 168.915 140.489 162.522 150.779 152.167" stroke="white" stroke-opacity="0.1"/>
<path fill-rule="evenodd" clip-rule="evenodd" d="M147.133 148.504L150.779 152.166C140.489 162.524 126.274 168.916 110.549 168.916V163.717C124.851 163.717 137.771 157.908 147.133 148.504Z" fill="#3DA9FF"/>
<path d="M147.133 148.504L150.779 152.166C140.489 162.524 126.274 168.916 110.549 168.916V163.717C124.851 163.717 137.771 157.908 147.133 148.504" stroke="white" stroke-opacity="0.1"/>
<path fill-rule="evenodd" clip-rule="evenodd" d="M143.466 144.82L147.133 148.503C137.771 157.908 124.85 163.717 110.549 163.717V158.514C123.405 158.514 135.032 153.271 143.466 144.82Z" fill="#3DA9FF"/>
<path d="M143.466 144.82L147.133 148.503C137.771 157.908 124.85 163.717 110.549 163.717V158.514C123.405 158.514 135.032 153.271 143.466 144.82" stroke="white" stroke-opacity="0.1"/>
<path fill-rule="evenodd" clip-rule="evenodd" d="M139.82 141.158L143.466 144.818C135.032 153.271 123.405 158.515 110.549 158.515V153.336C121.981 153.336 132.335 148.678 139.82 141.158Z" fill="#3DA9FF"/>
<path d="M139.82 141.158L143.466 144.818C135.032 153.271 123.405 158.515 110.549 158.515V153.336C121.981 153.336 132.335 148.678 139.82 141.158" stroke="white" stroke-opacity="0.1"/>
<path fill-rule="evenodd" clip-rule="evenodd" d="M110.548 179.295V184.474C90.5523 184.474 72.4759 176.326 59.3608 163.175L63.0279 159.511C75.1938 171.732 91.9759 179.295 110.548 179.295Z" fill="#3DA9FF"/>
<path d="M110.548 179.295V184.474C90.5523 184.474 72.4759 176.326 59.3608 163.175L63.0279 159.511C75.1938 171.732 91.9759 179.295 110.548 179.295" stroke="white" stroke-opacity="0.1"/>
<path fill-rule="evenodd" clip-rule="evenodd" d="M110.548 174.094V179.294C91.9759 179.294 75.1938 171.732 63.0278 159.513L66.6733 155.827C77.8901 167.116 93.3996 174.094 110.548 174.094Z" fill="#3DA9FF"/>
<path d="M110.548 174.094V179.294C91.9759 179.294 75.1938 171.732 63.0278 159.513L66.6733 155.827C77.8901 167.116 93.3996 174.094 110.548 174.094" stroke="white" stroke-opacity="0.1"/>
<path fill-rule="evenodd" clip-rule="evenodd" d="M110.548 168.916V174.095C93.3994 174.095 77.8899 167.117 66.6731 155.828L70.3186 152.168C80.6294 162.523 94.8446 168.916 110.548 168.916Z" fill="#3DA9FF"/>
<path d="M110.548 168.916V174.095C93.3994 174.095 77.8899 167.117 66.6731 155.828L70.3186 152.168C80.6294 162.523 94.8446 168.916 110.548 168.916" stroke="white" stroke-opacity="0.1"/>
<path fill-rule="evenodd" clip-rule="evenodd" d="M110.548 163.717V168.915C94.8446 168.915 80.6295 162.523 70.3186 152.167L73.9856 148.503C83.3474 157.907 96.2683 163.717 110.548 163.717Z" fill="#3DA9FF"/>
<path d="M110.548 163.717V168.915C94.8446 168.915 80.6295 162.523 70.3186 152.167L73.9856 148.503C83.3474 157.907 96.2683 163.717 110.548 163.717" stroke="white" stroke-opacity="0.1"/>
<path fill-rule="evenodd" clip-rule="evenodd" d="M110.548 158.515V163.715C96.2685 163.715 83.3476 157.908 73.9858 148.504L77.6313 144.82C86.0655 153.271 97.6922 158.515 110.548 158.515Z" fill="#3DA9FF"/>
<path d="M110.548 158.515V163.715C96.2685 163.715 83.3476 157.908 73.9858 148.504L77.6313 144.82C86.0655 153.271 97.6922 158.515 110.548 158.515" stroke="white" stroke-opacity="0.1"/>
<path fill-rule="evenodd" clip-rule="evenodd" d="M110.548 153.336V158.515C97.692 158.515 86.0653 153.271 77.6311 144.818L81.2981 141.158C88.7832 148.678 99.1372 153.336 110.548 153.336Z" fill="#3DA9FF"/>
<path d="M110.548 153.336V158.515C97.692 158.515 86.0653 153.271 77.6311 144.818L81.2981 141.158C88.7832 148.678 99.1372 153.336 110.548 153.336" stroke="white" stroke-opacity="0.1"/>
<path fill-rule="evenodd" clip-rule="evenodd" d="M81.2991 141.158L77.632 144.818C69.1978 136.369 63.9993 124.668 63.9993 111.753H69.1763C69.1763 123.236 73.814 133.637 81.2991 141.158Z" fill="#3DA9FF"/>
<path d="M81.2991 141.158L77.632 144.818C69.1978 136.369 63.9993 124.668 63.9993 111.753H69.1763C69.1763 123.236 73.814 133.637 81.2991 141.158" stroke="white" stroke-opacity="0.1"/>
<path fill-rule="evenodd" clip-rule="evenodd" d="M77.6315 144.819L73.9861 148.503C64.6243 139.099 58.8218 126.097 58.8218 111.752H63.9988C63.9988 124.667 69.1973 136.371 77.6315 144.819Z" fill="#3DA9FF"/>
<path d="M77.6315 144.819L73.9861 148.503C64.6243 139.099 58.8218 126.097 58.8218 111.752H63.9988C63.9988 124.667 69.1973 136.371 77.6315 144.819" stroke="white" stroke-opacity="0.1"/>
<path fill-rule="evenodd" clip-rule="evenodd" d="M73.9865 148.504L70.3194 152.166C60.0301 141.83 53.6667 127.528 53.6667 111.753H58.8222C58.8222 126.098 64.6247 139.099 73.9865 148.504Z" fill="#3DA9FF"/>
<path d="M73.9865 148.504L70.3194 152.166C60.0301 141.83 53.6667 127.528 53.6667 111.753H58.8222C58.8222 126.098 64.6247 139.099 73.9865 148.504" stroke="white" stroke-opacity="0.1"/>
<path fill-rule="evenodd" clip-rule="evenodd" d="M70.3189 152.166L66.6735 155.826C55.4351 144.558 48.4893 128.959 48.4893 111.754H53.6663C53.6663 127.529 60.0297 141.828 70.3189 152.166Z" fill="#3DA9FF"/>
<path d="M70.3189 152.166L66.6735 155.826C55.4351 144.558 48.4893 128.959 48.4893 111.754H53.6663C53.6663 127.529 60.0297 141.828 70.3189 152.166" stroke="white" stroke-opacity="0.1"/>
<path fill-rule="evenodd" clip-rule="evenodd" d="M182.962 111.753H177.785C177.785 93.1175 170.257 76.2157 158.091 63.9943L161.737 60.3323H161.758C174.852 73.4854 182.962 91.6657 182.962 111.753Z" fill="#FFA012"/>
<path d="M182.962 111.753H177.785C177.785 93.1175 170.257 76.2157 158.091 63.9943L161.737 60.3323H161.758C174.852 73.4854 182.962 91.6657 182.962 111.753" stroke="white" stroke-opacity="0.1"/>
<path fill-rule="evenodd" clip-rule="evenodd" d="M177.786 111.753H172.609C172.609 94.5475 165.663 78.9458 154.424 67.6779L158.091 63.9941C170.257 76.2155 177.786 93.1173 177.786 111.753Z" fill="#FFA012"/>
<path d="M177.786 111.753H172.609C172.609 94.5475 165.663 78.9458 154.424 67.6779L158.091 63.9941C170.257 76.2155 177.786 93.1173 177.786 111.753" stroke="white" stroke-opacity="0.1"/>
<path fill-rule="evenodd" clip-rule="evenodd" d="M172.608 111.753H167.452C167.452 95.978 161.089 81.6764 150.778 71.3403L154.423 67.6782C165.662 78.9461 172.608 94.5478 172.608 111.753Z" fill="#FFA012"/>
<path d="M172.608 111.753H167.452C167.452 95.978 161.089 81.6764 150.778 71.3403L154.423 67.6782C165.662 78.9461 172.608 94.5478 172.608 111.753" stroke="white" stroke-opacity="0.1"/>
<path fill-rule="evenodd" clip-rule="evenodd" d="M167.453 111.753H162.276C162.276 97.4082 156.495 84.4068 147.133 75.0024L150.779 71.3403C161.09 81.6765 167.453 95.978 167.453 111.753Z" fill="#FFA012"/>
<path d="M167.453 111.753H162.276C162.276 97.4082 156.495 84.4068 147.133 75.0024L150.779 71.3403C161.09 81.6765 167.453 95.978 167.453 111.753" stroke="white" stroke-opacity="0.1"/>
<path fill-rule="evenodd" clip-rule="evenodd" d="M157.12 111.753H162.276C162.276 126.098 156.495 139.099 147.133 148.504L143.466 144.82C151.9 136.369 157.12 124.668 157.12 111.753Z" fill="#FFA012"/>
<path d="M157.12 111.753H162.276C162.276 126.098 156.495 139.099 147.133 148.504L143.466 144.82C151.9 136.369 157.12 124.668 157.12 111.753" stroke="white" stroke-opacity="0.1"/>
<path fill-rule="evenodd" clip-rule="evenodd" d="M151.944 111.753H157.121C157.121 124.668 151.9 136.369 143.466 144.82L139.821 141.158C147.306 133.639 151.944 123.238 151.944 111.753Z" fill="#FFA012"/>
<path d="M151.944 111.753H157.121C157.121 124.668 151.9 136.369 143.466 144.82L139.821 141.158C147.306 133.639 151.944 123.238 151.944 111.753" stroke="white" stroke-opacity="0.1"/>
<path fill-rule="evenodd" clip-rule="evenodd" d="M110.548 189.675V194.854C87.7047 194.854 67.0183 185.558 52.0481 170.519L55.6936 166.857C69.7362 180.964 89.1284 189.675 110.548 189.675Z" fill="#FFA012"/>
<path d="M110.548 189.675V194.854C87.7047 194.854 67.0183 185.558 52.0481 170.519L55.6936 166.857C69.7362 180.964 89.1284 189.675 110.548 189.675" stroke="white" stroke-opacity="0.1"/>
<path fill-rule="evenodd" clip-rule="evenodd" d="M110.548 184.474V189.674C89.1284 189.674 69.7362 180.965 55.6936 166.857L59.3606 163.175C72.4757 176.326 90.5521 184.474 110.548 184.474Z" fill="#FFA012"/>
<path d="M110.548 184.474V189.674C89.1284 189.674 69.7362 180.965 55.6936 166.857L59.3606 163.175C72.4757 176.326 90.5521 184.474 110.548 184.474" stroke="white" stroke-opacity="0.1"/>
<path fill-rule="evenodd" clip-rule="evenodd" d="M77.6318 78.6863L81.2988 82.3483C73.8138 89.8675 69.176 100.269 69.176 111.753H63.999C63.999 98.8385 69.1976 87.1372 77.6318 78.6863Z" fill="#FFA012"/>
<path d="M77.6318 78.6863L81.2988 82.3483C73.8138 89.8675 69.176 100.269 69.176 111.753H63.999C63.999 98.8385 69.1976 87.1372 77.6318 78.6863" stroke="white" stroke-opacity="0.1"/>
<path fill-rule="evenodd" clip-rule="evenodd" d="M73.9863 75.0022L77.6318 78.6859C69.1976 87.1369 63.999 98.8381 63.999 111.753H58.822C58.822 97.408 64.6246 84.4066 73.9863 75.0022Z" fill="#FFA012"/>
<path d="M73.9863 75.0022L77.6318 78.6859C69.1976 87.1369 63.999 98.8381 63.999 111.753H58.822C58.822 97.408 64.6246 84.4066 73.9863 75.0022" stroke="white" stroke-opacity="0.1"/>
<path fill-rule="evenodd" clip-rule="evenodd" d="M70.3189 71.3403L73.986 75.0024C64.6242 84.4068 58.8217 97.4082 58.8217 111.753H53.6663C53.6663 95.978 60.0297 81.6765 70.3189 71.3403Z" fill="#FFA012"/>
<path d="M70.3189 71.3403L73.986 75.0024C64.6242 84.4068 58.8217 97.4082 58.8217 111.753H53.6663C53.6663 95.978 60.0297 81.6765 70.3189 71.3403" stroke="white" stroke-opacity="0.1"/>
<path fill-rule="evenodd" clip-rule="evenodd" d="M66.6735 67.6787L70.3189 71.3408C60.0297 81.6769 53.6663 95.9785 53.6663 111.754H48.4893C48.4893 94.5483 55.4351 78.9466 66.6735 67.6787Z" fill="#FFA012"/>
<path d="M66.6735 67.6787L70.3189 71.3408C60.0297 81.6769 53.6663 95.9785 53.6663 111.754H48.4893C48.4893 94.5483 55.4351 78.9466 66.6735 67.6787" stroke="white" stroke-opacity="0.1"/>
<path fill-rule="evenodd" clip-rule="evenodd" d="M66.6734 155.827L63.0279 159.511C50.862 147.292 43.3337 130.388 43.3337 111.752H48.4892C48.4892 128.96 55.435 144.559 66.6734 155.827Z" fill="#FFA012"/>
<path d="M66.6734 155.827L63.0279 159.511C50.862 147.292 43.3337 130.388 43.3337 111.752H48.4892C48.4892 128.96 55.435 144.559 66.6734 155.827" stroke="white" stroke-opacity="0.1"/>
<path fill-rule="evenodd" clip-rule="evenodd" d="M63.0282 159.511L59.3611 163.174C46.2676 150.02 38.157 131.838 38.157 111.753H43.334C43.334 130.388 50.8622 147.29 63.0282 159.511Z" fill="#FFA012"/>
<path d="M63.0282 159.511L59.3611 163.174C46.2676 150.02 38.157 131.838 38.157 111.753H43.334C43.334 130.388 50.8622 147.29 63.0282 159.511" stroke="white" stroke-opacity="0.1"/>
<path fill-rule="evenodd" clip-rule="evenodd" d="M188.118 111.753H193.295C193.295 134.722 184.019 155.503 169.049 170.519L165.404 166.857C179.425 152.751 188.118 133.27 188.118 111.753Z" fill="#F34747"/>
<path d="M188.118 111.753H193.295C193.295 134.722 184.019 155.503 169.049 170.519L165.404 166.857C179.425 152.751 188.118 133.27 188.118 111.753" stroke="white" stroke-opacity="0.1"/>
<path fill-rule="evenodd" clip-rule="evenodd" d="M182.962 111.753H188.118C188.118 133.27 179.425 152.751 165.404 166.857L161.737 163.174C174.852 150.042 182.962 131.84 182.962 111.753Z" fill="#F34747"/>
<path d="M182.962 111.753H188.118C188.118 133.27 179.425 152.751 165.404 166.857L161.737 163.174C174.852 150.042 182.962 131.84 182.962 111.753" stroke="white" stroke-opacity="0.1"/>
<path fill-rule="evenodd" clip-rule="evenodd" d="M177.785 111.753H182.962C182.962 131.84 174.852 150.042 161.737 163.174L158.091 159.511C170.257 147.29 177.785 130.388 177.785 111.753Z" fill="#F34747"/>
<path d="M177.785 111.753H182.962C182.962 131.84 174.852 150.042 161.737 163.174L158.091 159.511C170.257 147.29 177.785 130.388 177.785 111.753" stroke="white" stroke-opacity="0.1"/>
<path fill-rule="evenodd" clip-rule="evenodd" d="M172.608 111.753H177.785C177.785 130.388 170.256 147.29 158.09 159.511L154.423 155.828C165.662 144.56 172.608 128.958 172.608 111.753Z" fill="#F34747"/>
<path d="M172.608 111.753H177.785C177.785 130.388 170.256 147.29 158.09 159.511L154.423 155.828C165.662 144.56 172.608 128.958 172.608 111.753" stroke="white" stroke-opacity="0.1"/>
<path fill-rule="evenodd" clip-rule="evenodd" d="M167.453 111.753H172.608C172.608 128.958 165.662 144.56 154.424 155.828L150.779 152.166C161.089 141.83 167.453 127.528 167.453 111.753Z" fill="#F34747"/>
<path d="M167.453 111.753H172.608C172.608 128.958 165.662 144.56 154.424 155.828L150.779 152.166C161.089 141.83 167.453 127.528 167.453 111.753" stroke="white" stroke-opacity="0.1"/>
<path fill-rule="evenodd" clip-rule="evenodd" d="M162.275 111.753H167.452C167.452 127.528 161.089 141.83 150.778 152.166L147.132 148.504C156.494 139.099 162.275 126.098 162.275 111.753Z" fill="#F34747"/>
<path d="M162.275 111.753H167.452C167.452 127.528 161.089 141.83 150.778 152.166L147.132 148.504C156.494 139.099 162.275 126.098 162.275 111.753" stroke="white" stroke-opacity="0.1"/>
<path fill-rule="evenodd" clip-rule="evenodd" d="M110.548 200.054V205.255C84.8573 205.255 61.5824 194.789 44.7356 177.865L48.4026 174.203C64.3003 190.173 86.281 200.054 110.548 200.054Z" fill="#F34747"/>
<path d="M110.548 200.054V205.255C84.8573 205.255 61.5824 194.789 44.7356 177.865L48.4026 174.203C64.3003 190.173 86.281 200.054 110.548 200.054" stroke="white" stroke-opacity="0.1"/>
<path fill-rule="evenodd" clip-rule="evenodd" d="M110.548 194.853V200.053C86.281 200.053 64.3003 190.174 48.4026 174.204L52.0481 170.521C67.0182 185.557 87.7046 194.853 110.548 194.853Z" fill="#F34747"/>
<path d="M110.548 194.853V200.053C86.281 200.053 64.3003 190.174 48.4026 174.204L52.0481 170.521C67.0182 185.557 87.7046 194.853 110.548 194.853" stroke="white" stroke-opacity="0.1"/>
<path fill-rule="evenodd" clip-rule="evenodd" d="M110.548 64.991V70.1699C99.1372 70.1699 88.7832 74.8287 81.2981 82.3479L77.6311 78.6858C86.0653 70.2349 97.692 64.991 110.548 64.991Z" fill="#F34747"/>
<path d="M110.548 64.991V70.1699C99.1372 70.1699 88.7832 74.8287 81.2981 82.3479L77.6311 78.6858C86.0653 70.2349 97.692 64.991 110.548 64.991" stroke="white" stroke-opacity="0.1"/>
<path fill-rule="evenodd" clip-rule="evenodd" d="M110.548 59.7905V64.9911C97.6919 64.9911 86.0653 70.235 77.6311 78.6859L73.9856 75.0022C83.3473 65.5978 96.2683 59.7905 110.548 59.7905Z" fill="#F34747"/>
<path d="M110.548 59.7905V64.9911C97.6919 64.9911 86.0653 70.235 77.6311 78.6859L73.9856 75.0022C83.3473 65.5978 96.2683 59.7905 110.548 59.7905" stroke="white" stroke-opacity="0.1"/>
<path fill-rule="evenodd" clip-rule="evenodd" d="M59.3606 163.175L55.6936 166.856C41.6725 152.75 32.9795 133.269 32.9795 111.754H38.1565C38.1565 131.839 46.2671 150.021 59.3606 163.175Z" fill="#F34747"/>
<path d="M59.3606 163.175L55.6936 166.856C41.6725 152.75 32.9795 133.269 32.9795 111.754H38.1565C38.1565 131.839 46.2671 150.021 59.3606 163.175" stroke="white" stroke-opacity="0.1"/>
<path fill-rule="evenodd" clip-rule="evenodd" d="M55.6942 166.857L52.0488 170.519C37.0786 155.48 27.8247 134.7 27.8247 111.752H32.9801C32.9801 133.27 41.6732 152.75 55.6942 166.857Z" fill="#F34747"/>
<path d="M55.6942 166.857L52.0488 170.519C37.0786 155.48 27.8247 134.7 27.8247 111.752H32.9801C32.9801 133.27 41.6732 152.75 55.6942 166.857" stroke="white" stroke-opacity="0.1"/>
<path d="M81.8669 83.2988L37.018 38.5173" stroke="#B7DBFF"/>
<path d="M69.7634 111.535L6.59248 111.308" stroke="#B7DBFF"/>
<path d="M82.8071 140.712L37.6815 185.087" stroke="#B7DBFF"/>
<path d="M111.088 153.294L110.86 216.102" stroke="#B7DBFF"/>
<path d="M139.368 140.712L184.445 185.722" stroke="#B7DBFF"/>
<path d="M151.472 111.535L215.213 111.308" stroke="#B7DBFF"/>
<path d="M139.368 82.3586L184.494 36.6181" stroke="#B7DBFF"/>
<path d="M110.147 70.0051L109.92 6.51449" stroke="#B7DBFF"/>
<circle cx="110.951" cy="111.892" r="41.8077" fill="white" stroke="#B7DBFF"/>
<path opacity="0.7" d="M93.0293 89.4688V98H91.916V89.4688H93.0293ZM95.7715 89.4688V90.3945H89.1797V89.4688H95.7715ZM96.0117 94.9004V94.7656C96.0117 94.3086 96.0781 93.8848 96.2109 93.4941C96.3438 93.0996 96.5352 92.7578 96.7852 92.4688C97.0352 92.1758 97.3379 91.9492 97.6934 91.7891C98.0488 91.625 98.4473 91.543 98.8887 91.543C99.334 91.543 99.7344 91.625 100.09 91.7891C100.449 91.9492 100.754 92.1758 101.004 92.4688C101.258 92.7578 101.451 93.0996 101.584 93.4941C101.717 93.8848 101.783 94.3086 101.783 94.7656V94.9004C101.783 95.3574 101.717 95.7812 101.584 96.1719C101.451 96.5625 101.258 96.9043 101.004 97.1973C100.754 97.4863 100.451 97.7129 100.096 97.877C99.7441 98.0371 99.3457 98.1172 98.9004 98.1172C98.4551 98.1172 98.0547 98.0371 97.6992 97.877C97.3438 97.7129 97.0391 97.4863 96.7852 97.1973C96.5352 96.9043 96.3438 96.5625 96.2109 96.1719C96.0781 95.7812 96.0117 95.3574 96.0117 94.9004ZM97.0957 94.7656V94.9004C97.0957 95.2168 97.1328 95.5156 97.207 95.7969C97.2812 96.0742 97.3926 96.3203 97.541 96.5352C97.6934 96.75 97.8828 96.9199 98.1094 97.0449C98.3359 97.166 98.5996 97.2266 98.9004 97.2266C99.1973 97.2266 99.457 97.166 99.6797 97.0449C99.9062 96.9199 100.094 96.75 100.242 96.5352C100.391 96.3203 100.502 96.0742 100.576 95.7969C100.654 95.5156 100.693 95.2168 100.693 94.9004V94.7656C100.693 94.4531 100.654 94.1582 100.576 93.8809C100.502 93.5996 100.389 93.3516 100.236 93.1367C100.088 92.918 99.9004 92.7461 99.6738 92.6211C99.4512 92.4961 99.1895 92.4336 98.8887 92.4336C98.5918 92.4336 98.3301 92.4961 98.1035 92.6211C97.8809 92.7461 97.6934 92.918 97.541 93.1367C97.3926 93.3516 97.2812 93.5996 97.207 93.8809C97.1328 94.1582 97.0957 94.4531 97.0957 94.7656ZM105.797 91.6602V92.4922H102.369V91.6602H105.797ZM103.529 90.1191H104.613V96.4297C104.613 96.6445 104.646 96.8066 104.713 96.916C104.779 97.0254 104.865 97.0977 104.971 97.1328C105.076 97.168 105.189 97.1855 105.311 97.1855C105.4 97.1855 105.494 97.1777 105.592 97.1621C105.693 97.1426 105.77 97.127 105.82 97.1152L105.826 98C105.74 98.0273 105.627 98.0527 105.486 98.0762C105.35 98.1035 105.184 98.1172 104.988 98.1172C104.723 98.1172 104.479 98.0645 104.256 97.959C104.033 97.8535 103.855 97.6777 103.723 97.4316C103.594 97.1816 103.529 96.8457 103.529 96.4238V90.1191ZM110.807 96.916V93.6523C110.807 93.4023 110.756 93.1855 110.654 93.002C110.557 92.8145 110.408 92.6699 110.209 92.5684C110.01 92.4668 109.764 92.416 109.471 92.416C109.197 92.416 108.957 92.4629 108.75 92.5566C108.547 92.6504 108.387 92.7734 108.27 92.9258C108.156 93.0781 108.1 93.2422 108.1 93.418H107.016C107.016 93.1914 107.074 92.9668 107.191 92.7441C107.309 92.5215 107.477 92.3203 107.695 92.1406C107.918 91.957 108.184 91.8125 108.492 91.707C108.805 91.5977 109.152 91.543 109.535 91.543C109.996 91.543 110.402 91.6211 110.754 91.7773C111.109 91.9336 111.387 92.1699 111.586 92.4863C111.789 92.7988 111.891 93.1914 111.891 93.6641V96.6172C111.891 96.8281 111.908 97.0527 111.943 97.291C111.982 97.5293 112.039 97.7344 112.113 97.9062V98H110.982C110.928 97.875 110.885 97.709 110.854 97.502C110.822 97.291 110.807 97.0957 110.807 96.916ZM110.994 94.1562L111.006 94.918H109.91C109.602 94.918 109.326 94.9434 109.084 94.9941C108.842 95.041 108.639 95.1133 108.475 95.2109C108.311 95.3086 108.186 95.4316 108.1 95.5801C108.014 95.7246 107.971 95.8945 107.971 96.0898C107.971 96.2891 108.016 96.4707 108.105 96.6348C108.195 96.7988 108.33 96.9297 108.51 97.0273C108.693 97.1211 108.918 97.168 109.184 97.168C109.516 97.168 109.809 97.0977 110.062 96.957C110.316 96.8164 110.518 96.6445 110.666 96.4414C110.818 96.2383 110.9 96.041 110.912 95.8496L111.375 96.3711C111.348 96.5352 111.273 96.7168 111.152 96.916C111.031 97.1152 110.869 97.3066 110.666 97.4902C110.467 97.6699 110.229 97.8203 109.951 97.9414C109.678 98.0586 109.369 98.1172 109.025 98.1172C108.596 98.1172 108.219 98.0332 107.895 97.8652C107.574 97.6973 107.324 97.4727 107.145 97.1914C106.969 96.9062 106.881 96.5879 106.881 96.2363C106.881 95.8965 106.947 95.5977 107.08 95.3398C107.213 95.0781 107.404 94.8613 107.654 94.6895C107.904 94.5137 108.205 94.3809 108.557 94.291C108.908 94.2012 109.301 94.1562 109.734 94.1562H110.994ZM114.773 89V98H113.684V89H114.773ZM122.572 89.4688V98H121.459V89.4688H122.572ZM125.314 89.4688V90.3945H118.723V89.4688H125.314ZM127.312 89.4688L129.363 92.7383L131.414 89.4688H132.732L130.037 93.6934L132.797 98H131.467L129.363 94.666L127.26 98H125.93L128.689 93.6934L125.994 89.4688H127.312Z" fill="#8B8B8B"/>
<path d="M90.4994 120.922H92.7494C93.6244 120.922 94.3483 120.771 94.9212 120.469C95.5046 120.167 95.9369 119.75 96.2181 119.219C96.4994 118.688 96.64 118.078 96.64 117.391C96.64 116.672 96.5098 116.057 96.2494 115.547C95.9994 115.026 95.614 114.625 95.0931 114.344C94.5827 114.062 93.9317 113.922 93.14 113.922C92.4733 113.922 91.8692 114.057 91.3275 114.328C90.7962 114.589 90.3744 114.964 90.0619 115.453C89.7494 115.932 89.5931 116.505 89.5931 117.172H85.8119C85.8119 115.964 86.1296 114.891 86.765 113.953C87.4004 113.016 88.265 112.281 89.3587 111.75C90.4629 111.208 91.7025 110.938 93.0775 110.938C94.5462 110.938 95.8275 111.182 96.9212 111.672C98.0254 112.151 98.8848 112.87 99.4994 113.828C100.114 114.786 100.421 115.974 100.421 117.391C100.421 118.036 100.27 118.693 99.9681 119.359C99.666 120.026 99.2181 120.635 98.6244 121.188C98.0306 121.729 97.291 122.172 96.4056 122.516C95.5202 122.849 94.4942 123.016 93.3275 123.016H90.4994V120.922ZM90.4994 123.859V121.797H93.3275C94.6608 121.797 95.7962 121.953 96.7337 122.266C97.6817 122.578 98.4525 123.01 99.0462 123.562C99.64 124.104 100.072 124.724 100.343 125.422C100.624 126.12 100.765 126.859 100.765 127.641C100.765 128.703 100.572 129.651 100.187 130.484C99.8119 131.307 99.2754 132.005 98.5775 132.578C97.8796 133.151 97.0619 133.583 96.1244 133.875C95.1973 134.167 94.1869 134.312 93.0931 134.312C92.114 134.312 91.1765 134.177 90.2806 133.906C89.3848 133.635 88.5827 133.234 87.8744 132.703C87.166 132.161 86.6035 131.49 86.1869 130.688C85.7806 129.875 85.5775 128.938 85.5775 127.875H89.3431C89.3431 128.552 89.4994 129.151 89.8119 129.672C90.1348 130.182 90.5827 130.583 91.1556 130.875C91.739 131.167 92.4056 131.312 93.1556 131.312C93.9473 131.312 94.6296 131.172 95.2025 130.891C95.7754 130.609 96.2129 130.193 96.515 129.641C96.8275 129.089 96.9837 128.422 96.9837 127.641C96.9837 126.755 96.8119 126.036 96.4681 125.484C96.1244 124.932 95.6348 124.526 94.9994 124.266C94.364 123.995 93.614 123.859 92.7494 123.859H90.4994ZM108.047 120.922H110.297C111.172 120.922 111.896 120.771 112.469 120.469C113.052 120.167 113.484 119.75 113.766 119.219C114.047 118.688 114.188 118.078 114.188 117.391C114.188 116.672 114.057 116.057 113.797 115.547C113.547 115.026 113.161 114.625 112.641 114.344C112.13 114.062 111.479 113.922 110.688 113.922C110.021 113.922 109.417 114.057 108.875 114.328C108.344 114.589 107.922 114.964 107.609 115.453C107.297 115.932 107.141 116.505 107.141 117.172H103.359C103.359 115.964 103.677 114.891 104.312 113.953C104.948 113.016 105.812 112.281 106.906 111.75C108.01 111.208 109.25 110.938 110.625 110.938C112.094 110.938 113.375 111.182 114.469 111.672C115.573 112.151 116.432 112.87 117.047 113.828C117.661 114.786 117.969 115.974 117.969 117.391C117.969 118.036 117.818 118.693 117.516 119.359C117.214 120.026 116.766 120.635 116.172 121.188C115.578 121.729 114.839 122.172 113.953 122.516C113.068 122.849 112.042 123.016 110.875 123.016H108.047V120.922ZM108.047 123.859V121.797H110.875C112.208 121.797 113.344 121.953 114.281 122.266C115.229 122.578 116 123.01 116.594 123.562C117.188 124.104 117.62 124.724 117.891 125.422C118.172 126.12 118.312 126.859 118.312 127.641C118.312 128.703 118.12 129.651 117.734 130.484C117.359 131.307 116.823 132.005 116.125 132.578C115.427 133.151 114.609 133.583 113.672 133.875C112.745 134.167 111.734 134.312 110.641 134.312C109.661 134.312 108.724 134.177 107.828 133.906C106.932 133.635 106.13 133.234 105.422 132.703C104.714 132.161 104.151 131.49 103.734 130.688C103.328 129.875 103.125 128.938 103.125 127.875H106.891C106.891 128.552 107.047 129.151 107.359 129.672C107.682 130.182 108.13 130.583 108.703 130.875C109.286 131.167 109.953 131.312 110.703 131.312C111.495 131.312 112.177 131.172 112.75 130.891C113.323 130.609 113.76 130.193 114.062 129.641C114.375 129.089 114.531 128.422 114.531 127.641C114.531 126.755 114.359 126.036 114.016 125.484C113.672 124.932 113.182 124.526 112.547 124.266C111.911 123.995 111.161 123.859 110.297 123.859H108.047ZM136.844 125.891V128.891H120.438L120.313 126.625L130.126 111.25H133.141L129.876 116.844L124.235 125.891H136.844ZM134.001 111.25V134H130.235V111.25H134.001Z" fill="#222222"/>
<circle cx="111.578" cy="111.422" r="104.407" stroke="#B7DBFF"/>
<defs>
<linearGradient id="paint0_linear_27173_152263" x1="56.5" y1="1.5" x2="56.5" y2="221.5" gradientUnits="userSpaceOnUse">
<stop stop-color="#3DA9FF"/>
<stop offset="1" stop-color="white" stop-opacity="0.15"/>
<stop offset="1" stop-color="#3DA9FF"/>
</linearGradient>
<linearGradient id="paint1_linear_27173_152263" x1="166.5" y1="221.5" x2="166.5" y2="1.5" gradientUnits="userSpaceOnUse">
<stop stop-color="#3DA9FF"/>
<stop offset="1" stop-color="white" stop-opacity="0.15"/>
<stop offset="1" stop-color="#3DA9FF"/>
</linearGradient>
</defs>
</svg>
