<svg width="20" height="20" viewBox="0 0 20 20" fill="none" xmlns="http://www.w3.org/2000/svg">
<path fill-rule="evenodd" clip-rule="evenodd" d="M8.89317 2.0875C9.52456 1.52649 10.4756 1.5265 11.107 2.0875L18.607 8.75449C19.1242 9.21421 19.3041 9.94559 19.0582 10.5924C18.8124 11.239 18.1924 11.6664 17.5006 11.6666H16.6666V16.6666C16.6666 17.5869 15.9208 18.3333 15.0006 18.3336H10.8336V13.3326H9.16758V16.6666H9.1666V18.3336H5.00059C4.08012 18.3336 3.3336 17.5871 3.3336 16.6666V11.6666H2.50059C1.80862 11.6666 1.18791 11.2392 0.941996 10.5924C0.696088 9.94559 0.875987 9.21421 1.39317 8.75449L8.89317 2.0875ZM15.0006 9.99961H17.5006L10.0006 3.33359L2.50059 9.99961H5.00059V16.6666H7.50059V11.6666H12.5006V16.6666H15.0006V9.99961Z" fill="#757575"/>
</svg>
