<svg width="20" height="20" viewBox="0 0 20 20" fill="none" xmlns="http://www.w3.org/2000/svg">
<path d="M11.3718 11.3708C12.6535 10.0897 14.7319 10.0903 16.0134 11.3718C17.0943 12.4531 17.2625 14.1009 16.5193 15.3591L18.3337 17.1736L17.1736 18.3337L15.3591 16.5193C14.1008 17.2623 12.4531 17.0942 11.3718 16.0134C10.0902 14.7318 10.0902 12.6525 11.3718 11.3708ZM18.0759 10.6921H16.4353V8.23022H8.23022V16.4353H9.87183V18.0759H1.66675V1.66675H18.0759V10.6921ZM3.30737 16.4353H6.5896V3.30737H3.30737V16.4353ZM14.8533 12.532C14.2126 11.8913 13.1728 11.8907 12.532 12.531C11.8912 13.1718 11.8912 14.2124 12.532 14.8533C13.1728 15.4936 14.2126 15.493 14.8533 14.8523C15.4935 14.2116 15.4935 13.1727 14.8533 12.532ZM8.23022 6.5896H16.4353V3.30737H8.23022V6.5896Z" fill="#757575"/>
</svg>
