<svg width="16" height="19" viewBox="0 0 16 19" fill="none" xmlns="http://www.w3.org/2000/svg">
<path fill-rule="evenodd" clip-rule="evenodd" d="M5.0099 0L3.83319 1.17714L5.81942 3.16408L0.369289 8.63C-0.123096 9.12256 -0.123096 9.91567 0.369289 10.3999L6.37344 16.1142C6.61546 16.3563 6.94093 16.4816 7.25806 16.4816C7.57519 16.4816 7.90067 16.3563 8.14269 16.1142L13.7471 10.588C14.2395 10.1038 14.2395 9.31072 13.7471 8.81816L5.0099 0ZM6.95669 4.19558L12.0855 9.28069L1.89491 9.28292L6.95669 4.19558ZM11.8257 16.6046C11.8257 17.6286 12.7649 18.4664 13.9128 18.4664C15.0607 18.4664 15.9999 17.6286 15.9999 16.6046C15.9999 15.3665 13.9128 13.3464 13.9128 13.3464C12.8693 14.9755 11.8257 15.3665 11.8257 16.6046Z" fill="#757575"/>
</svg>
