<svg width="24" height="24" viewBox="0 0 240 240" fill="none" xmlns="http://www.w3.org/2000/svg">
  <!-- DNYX brand symbol — auto-traced from Figma PNG (node 4211:6), Moore contour + RDP simplification -->
  <g fill="#333333">
    <path d="M64.4,62.9 L74.6,68.0 L82.2,74.8 L89.0,85.0 L91.1,90.9 L92.0,96.4 L87.3,93.9 L80.5,92.2 L79.2,88.8 L74.6,82.0 L69.5,77.3 L63.9,73.9 L64.4,62.9 Z" />
    <path d="M64.4,82.8 L67.8,85.4 L71.2,89.6 L73.7,94.7 L74.6,98.6 L74.1,142.3 L73.3,145.3 L69.9,151.2 L63.1,157.2 L55.9,159.7 L47.4,159.7 L42.7,158.4 L38.0,155.9 L31.7,149.1 L28.7,141.0 L28.3,135.9 L29.1,130.0 L30.8,125.7 L34.2,121.1 L40.6,116.0 L46.1,113.8 L56.3,113.8 L56.7,124.9 L53.7,124.0 L49.1,124.0 L45.7,125.3 L40.6,130.0 L38.9,134.2 L38.9,138.1 L39.3,140.2 L42.3,145.3 L45.3,147.8 L48.2,149.1 L54.6,149.1 L57.1,148.2 L61.8,144.0 L63.9,139.3 L64.4,134.7 L64.4,82.8 Z" />
    <path d="M149.7,99.0 L159.5,99.4 L159.9,107.9 L163.3,116.4 L169.3,123.6 L184.1,138.1 L166.3,155.9 L163.7,159.3 L160.3,166.9 L159.1,177.1 L149.3,177.1 L149.3,170.3 L151.0,162.3 L154.4,154.6 L157.8,149.9 L169.7,137.6 L156.9,125.3 L153.6,120.2 L149.7,109.6 L149.7,99.0 Z" />
    <path d="M166.7,99.0 L176.5,99.0 L176.9,103.6 L178.6,107.5 L180.3,110.0 L189.7,118.9 L199.4,107.9 L201.1,104.1 L201.5,99.4 L211.7,99.4 L211.7,104.9 L210.5,109.2 L206.6,115.5 L189.2,133.0 L170.5,114.3 L167.1,107.0 L166.7,99.0 Z" />
    <path d="M228.7,99.0 L229.2,102.8 L228.3,110.0 L224.5,120.6 L220.2,126.6 L208.3,138.1 L221.1,150.8 L224.1,155.0 L227.5,163.1 L228.7,169.1 L228.7,177.1 L219.4,177.1 L218.1,167.8 L213.9,158.4 L194.7,138.9 L194.3,137.6 L210.9,121.5 L215.1,116.0 L218.5,106.6 L219.0,99.4 L228.7,99.0 Z" />
    <path d="M123.0,106.6 L115.3,107.0 L108.5,109.6 L103.0,113.4 L96.6,121.5 L94.1,117.7 L88.6,112.1 L83.1,109.2 L83.1,98.1 L90.3,101.1 L96.6,105.8 L106.0,99.8 L115.8,96.9 L126.8,96.4 L137.4,99.0 L143.4,101.9 L144.2,103.6 L145.1,112.6 L148.0,120.6 L141.2,113.0 L137.0,110.0 L129.3,107.0 L123.0,106.6 Z" />
    <path d="M83.1,117.2 L85.2,118.5 L89.0,122.8 L92.8,131.3 L92.8,177.1 L83.1,176.7 L83.1,117.2 Z" />
    <path d="M148.5,121.5 L153.6,129.6 L162.0,138.1 L152.3,148.7 L152.3,133.4 L151.4,128.3 L148.5,121.5 Z" />
    <path d="M124.7,124.0 L120.8,123.6 L117.0,124.9 L112.8,128.7 L111.1,131.7 L110.2,140.6 L110.7,176.7 L100.5,177.1 L100.5,131.7 L102.2,126.6 L106.8,120.2 L111.1,116.8 L119.2,113.8 L126.4,113.8 L133.6,116.4 L140.4,122.3 L143.4,127.4 L145.1,135.5 L145.1,163.5 L143.8,177.1 L134.9,176.7 L134.9,133.8 L133.6,130.4 L131.0,127.0 L127.2,124.5 L124.7,124.0 Z" />
    <path d="M10.8,141.0 L10.8,131.7 L13.0,122.3 L18.1,113.0 L25.3,105.3 L31.2,101.1 L41.4,96.9 L46.1,96.0 L56.3,96.0 L56.7,106.6 L46.1,106.6 L39.3,108.7 L31.7,113.8 L25.7,120.6 L22.7,126.6 L21.5,131.7 L21.5,141.4 L22.3,145.3 L25.3,152.1 L30.8,158.9 L39.7,164.8 L47.4,166.9 L55.4,166.9 L62.2,165.2 L70.3,160.6 L78.0,152.5 L78.0,167.8 L72.4,172.0 L66.5,175.0 L61.0,176.7 L48.6,177.5 L37.6,175.4 L27.4,169.9 L18.5,161.0 L13.4,152.1 L10.8,141.0 Z" />
    <path d="M190.9,159.3 L188.8,158.0 L179.9,166.9 L177.3,172.0 L176.5,177.1 L166.7,176.7 L166.7,171.2 L170.1,162.7 L188.8,143.6 L189.7,143.6 L207.5,161.8 L211.3,169.9 L211.7,176.7 L202.0,177.1 L199.8,169.1 L190.9,159.3 Z" />
  </g>
</svg>
