<svg width="24" height="24" viewBox="0 0 240 240" fill="none" xmlns="http://www.w3.org/2000/svg">
  <g transform="translate(8, 52)" stroke="#333333" stroke-width="5" stroke-linecap="round" stroke-linejoin="round" fill="none">
    <!-- ═══ d letter: 3 concentric open arcs (right side open) + tail ═══ -->
    <!-- d: outer arc (270°, open on right) -->
    <path d="M68,40 A46,46 0 1,0 68,132" />
    <!-- d: middle arc -->
    <path d="M68,52 A34,34 0 1,0 68,120" />
    <!-- d: inner arc -->
    <path d="M68,64 A22,22 0 1,0 68,108" />

    <!-- d: tail curving up-right from top of d -->
    <path d="M52,40 C52,16 72,6 92,6 C102,6 108,12 108,22" />
    <path d="M56,52 C56,30 74,18 90,18 C98,18 102,22 102,30" />
    <path d="M60,64 C62,46 76,34 88,34 C94,34 96,38 96,42" />

    <!-- ═══ n letter: 3 parallel arch shapes ═══ -->
    <!-- n: outer -->
    <path d="M68,132 L68,46 C68,12 96,4 120,4 C144,4 172,12 172,46 L172,132" />
    <!-- n: middle -->
    <path d="M78,120 L78,52 C78,24 100,16 120,16 C140,16 162,24 162,52 L162,132" />
    <!-- n: inner -->
    <path d="M88,108 L88,60 C88,36 104,28 120,28 C136,28 152,36 152,60 L152,132" />

    <!-- ═══ x letter: crossing diagonals with bottom roundover ═══ -->
    <!-- x: top-left to bottom-right (3 parallel) -->
    <path d="M152,40 L210,120 Q218,132 210,140" />
    <path d="M162,40 L210,108 Q216,118 210,128" />
    <path d="M172,40 L210,96 Q214,104 210,112" />

    <!-- x: top-right to bottom-left (3 parallel) -->
    <path d="M210,40 L152,120 Q144,132 152,140" />
    <path d="M210,52 L162,120 Q156,128 162,136" />
    <path d="M210,64 L172,108 Q168,114 172,120" />
  </g>
</svg>
