<svg width="127" height="24" viewBox="0 0 127 24" fill="none" xmlns="http://www.w3.org/2000/svg">
<path fill-rule="evenodd" clip-rule="evenodd" d="M114.212 11.9398C114.212 13.387 114.694 14.593 115.659 15.6785C116.624 16.6433 117.83 17.2463 119.156 17.2463C120.483 17.2463 121.689 16.7639 122.654 15.7991C123.619 14.8342 124.101 13.6282 124.101 12.181C124.101 10.7337 123.619 9.52769 122.654 8.44225C121.689 7.47742 120.483 6.99501 119.036 6.99501C117.709 6.99501 116.624 7.47742 115.659 8.44225C114.694 9.40708 114.212 10.6131 114.212 11.9398ZM114.332 17.4875V24.0001H111.679V4.70354H114.332V6.51259C115.056 5.78897 115.78 5.30656 116.624 4.94475C117.468 4.58294 118.312 4.46233 119.277 4.46233C121.448 4.46233 123.257 5.18595 124.704 6.6332C126.151 8.08044 126.875 9.8895 126.875 12.0604C126.875 13.0252 126.634 13.99 126.272 14.9548C125.91 15.9197 125.428 16.6433 124.704 17.3669C123.981 18.0905 123.136 18.6936 122.292 19.0554C121.448 19.4172 120.483 19.6584 119.277 19.6584C118.312 19.6584 117.347 19.5378 116.503 19.176C115.78 18.8142 115.056 18.2111 114.332 17.4875ZM96.2417 11.9398C96.2417 13.387 96.7242 14.593 97.689 15.6785C98.6538 16.6433 99.8598 17.1257 101.307 17.1257C102.634 17.1257 103.719 16.6433 104.684 15.6785C105.649 14.7136 106.131 13.5076 106.131 12.181C106.131 10.7337 105.649 9.52769 104.684 8.56286C103.719 7.35682 102.634 6.87441 101.307 6.87441C99.9804 6.87441 98.7744 7.35682 97.8096 8.32165C96.7242 9.28648 96.2417 10.4925 96.2417 11.9398ZM106.011 19.2966V17.4875C105.287 18.2111 104.563 18.6936 103.719 19.0554C102.875 19.4172 102.031 19.5378 101.066 19.5378C98.895 19.5378 97.086 18.8142 95.6387 17.3669C94.1915 15.9197 93.4679 14.1106 93.4679 11.8192C93.4679 10.7337 93.7091 9.76889 94.0709 8.92467C94.4327 7.95984 94.9151 7.23622 95.6387 6.51259C96.3623 5.78897 97.2066 5.18595 98.0508 4.82414C98.895 4.46233 99.8598 4.22113 101.066 4.22113C102.031 4.22113 102.996 4.34173 103.84 4.70354C104.684 5.06535 105.408 5.54777 106.131 6.27139V4.70354H108.785V19.2966H106.011ZM90.3322 19.2966H87.5583V2.65328H82.6135V0H95.2769V2.65328H90.3322V19.2966ZM70.7944 11.9398C70.7944 13.387 71.2768 14.593 72.2416 15.6785C73.2065 16.6433 74.4125 17.1257 75.8597 17.1257C77.1864 17.1257 78.2718 16.6433 79.2366 15.6785C80.2015 14.7136 80.6839 13.5076 80.6839 12.181C80.6839 10.7337 80.2015 9.52768 79.2366 8.56286C78.2718 7.59803 77.0658 6.99501 75.7391 6.99501C74.4125 6.99501 73.2065 7.47742 72.2416 8.44225C71.2768 9.28648 70.7944 10.4925 70.7944 11.9398ZM80.5633 19.2966V17.4875C79.8396 18.2111 79.116 18.6936 78.2718 19.0554C77.4276 19.4172 76.5833 19.5378 75.6185 19.5378C73.4477 19.5378 71.6386 18.8142 70.1914 17.3669C68.7441 15.9197 68.0205 14.1106 68.0205 11.8192C68.0205 10.7337 68.2617 9.76889 68.6235 8.92467C68.9853 7.95984 69.4677 7.23622 70.1914 6.51259C70.915 5.78897 71.7592 5.18595 72.6034 4.82414C73.4477 4.46233 74.4125 4.22113 75.6185 4.22113C76.5833 4.22113 77.5482 4.34173 78.3924 4.70354C79.2366 5.06535 79.9603 5.54777 80.6839 6.27139V4.70354H83.2165V19.2966H80.5633ZM56.2013 19.2966H53.5481V0H56.2013V6.39199C56.6838 5.78897 57.1662 5.30656 57.8898 4.94475C58.6134 4.58294 59.337 4.46233 60.3019 4.46233C62.1109 4.46233 63.4376 5.06535 64.4024 6.15078C65.3672 7.23622 65.8496 8.92467 65.8496 10.8543V19.2966H63.1963V11.8192C63.1963 10.2513 62.9551 9.04527 62.3521 8.20105C61.7491 7.35682 61.0255 6.99501 59.8194 6.99501C59.0958 6.99501 58.4928 7.11561 58.0104 7.47742C57.528 7.83923 57.0456 8.20105 56.6838 8.80406C56.4425 9.16587 56.3219 9.64829 56.3219 10.1307C56.2013 10.6131 56.2013 11.4573 56.2013 12.6634V19.2966ZM49.5681 0H52.4626L46.6737 19.2966H44.141L40.5229 4.94475L37.0254 19.2966H34.4927L28.7037 0H31.5982L35.8193 14.8342L39.558 0H41.6083L45.347 14.8342L49.5681 0Z" fill="#4C4C4C"/>
<mask id="mask0_0_4427" style="mask-type:luminance" maskUnits="userSpaceOnUse" x="0" y="0" width="127" height="24">
<path fill-rule="evenodd" clip-rule="evenodd" d="M0 24.0001H126.875V0H0V24.0001Z" fill="white"/>
</mask>
<g mask="url(#mask0_0_4427)">
<path fill-rule="evenodd" clip-rule="evenodd" d="M0 19.2965H2.89449V13.2663H0V19.2965Z" fill="#F25022"/>
<path fill-rule="evenodd" clip-rule="evenodd" d="M5.30659 19.2965H8.20107V6.75377H5.30659V19.2965Z" fill="#FFB902"/>
<path fill-rule="evenodd" clip-rule="evenodd" d="M10.6132 19.2966H13.5077V0H10.6132V19.2966Z" fill="#80BA01"/>
<path fill-rule="evenodd" clip-rule="evenodd" d="M18.8143 0H23.156V2.89449H18.8143V19.2966H15.9198V0H18.8143Z" fill="#19A0E5"/>
</g>
</svg>
