<svg width="16" height="16" viewBox="0 0 16 16" fill="none" xmlns="http://www.w3.org/2000/svg">
<path d="M7.99976 0.666748C8.99 0.666748 9.80892 1.38695 9.96851 2.33179C11.6979 2.93226 13.0668 4.3009 13.6677 6.03003C14.6129 6.18932 15.3336 7.00938 15.3337 7.99976C15.3337 9.10422 14.4382 9.99958 13.3337 9.99976C12.4633 9.99976 11.7248 9.443 11.45 8.66675H10.5789C10.3376 9.60305 9.60305 10.3376 8.66675 10.5789V11.45C9.443 11.7248 9.99976 12.4633 9.99976 13.3337C9.99958 14.4382 9.10422 15.3337 7.99976 15.3337C7.00938 15.3336 6.18932 14.6129 6.03003 13.6677C4.3009 13.0668 2.93226 11.6979 2.33179 9.96851C1.38695 9.80892 0.666748 8.99 0.666748 7.99976C0.666924 6.89534 1.56229 5.99976 2.66675 5.99976C3.5374 5.99976 4.27586 6.55709 4.55054 7.33374H5.42065C5.66206 6.39714 6.39711 5.661 7.33374 5.41968V4.55054C6.55709 4.27586 5.99976 3.5374 5.99976 2.66675C5.99976 1.56229 6.89534 0.666924 7.99976 0.666748ZM7.99976 12.6667C7.63172 12.6669 7.33374 12.9657 7.33374 13.3337C7.33392 13.7017 7.63182 13.9996 7.99976 13.9998C8.36784 13.9998 8.66657 13.7018 8.66675 13.3337C8.66675 12.9656 8.36795 12.6667 7.99976 12.6667ZM4.55249 8.66675C4.39239 9.11765 4.07452 9.49374 3.66577 9.73022C4.13923 10.9151 5.08364 11.8599 6.26831 12.3337C6.50507 11.9248 6.88203 11.6067 7.33374 11.447V10.5789C6.39728 10.3376 5.66204 9.6031 5.42065 8.66675H4.55249ZM8.00073 6.66675C7.26435 6.66675 6.66675 7.26435 6.66675 8.00073C6.6671 8.73681 7.26457 9.33374 8.00073 9.33374C8.7366 9.33339 9.33339 8.7366 9.33374 8.00073C9.33374 7.26457 8.73681 6.6671 8.00073 6.66675ZM2.66675 7.33374C2.29867 7.33374 1.99993 7.63172 1.99976 7.99976C1.99976 8.36795 2.29856 8.66675 2.66675 8.66675C3.03494 8.66675 3.33374 8.36795 3.33374 7.99976C3.33356 7.63172 3.03483 7.33374 2.66675 7.33374ZM13.3337 7.33374C12.9657 7.33374 12.6669 7.63172 12.6667 7.99976C12.6667 8.36795 12.9656 8.66675 13.3337 8.66675C13.7018 8.66657 13.9998 8.36784 13.9998 7.99976C13.9996 7.63182 13.7017 7.33392 13.3337 7.33374ZM9.73022 3.66577C9.49374 4.07452 9.11765 4.39239 8.66675 4.55249V5.42065C9.6031 5.66204 10.3376 6.39728 10.5789 7.33374H11.447C11.6067 6.88203 11.9248 6.50507 12.3337 6.26831C11.8599 5.08364 10.9151 4.13923 9.73022 3.66577ZM7.99976 1.99976C7.63172 1.99993 7.33374 2.29867 7.33374 2.66675C7.33374 3.03483 7.63172 3.33356 7.99976 3.33374C8.36795 3.33374 8.66675 3.03494 8.66675 2.66675C8.66675 2.29856 8.36795 1.99976 7.99976 1.99976Z" fill="#757575"/>
</svg>
