<svg width="24" height="24" viewBox="0 0 24 24" fill="none" xmlns="http://www.w3.org/2000/svg">
<path d="M17.5 4.5C18.6046 4.5 19.5 5.39543 19.5 6.5V17.5C19.5 18.6046 18.6046 19.5 17.5 19.5H6.5C5.39543 19.5 4.5 18.6046 4.5 17.5V6.5C4.5 5.39543 5.39543 4.5 6.5 4.5H17.5ZM10.0127 15.2676L11.4219 15.7803L13.9873 8.73242L12.5781 8.21973L10.0127 15.2676ZM5.81836 12L9 15.1816L10.0605 14.1211L7.93945 12L10.0605 9.87891L9 8.81836L5.81836 12ZM13.9395 9.87891L16.0605 12L13.9395 14.1211L15 15.1816L18.1816 12L15 8.81836L13.9395 9.87891Z" fill="#00B0E2"/>
</svg>
