<svg width="18" height="18" viewBox="0 0 18 18" fill="none" xmlns="http://www.w3.org/2000/svg">
<path d="M15.75 13.5C15.75 15.5711 12.7279 17.25 9 17.25C5.27208 17.25 2.25 15.5711 2.25 13.5V13.0117C3.62793 14.4276 6.13514 15.375 9 15.375C11.8649 15.375 14.3721 14.4276 15.75 13.0117V13.5ZM15.75 10.9072C15.3506 12.5839 12.5483 14.1562 9 14.1562C5.4517 14.1562 2.64944 12.5839 2.25 10.9072V10.0117C3.62793 11.4276 6.13514 12.375 9 12.375C11.8649 12.375 14.3721 11.4276 15.75 10.0117V10.9072ZM15.75 7.90723C15.3506 9.58388 12.5483 11.1562 9 11.1562C5.4517 11.1562 2.64944 9.58388 2.25 7.90723V7.01172C3.62793 8.42764 6.13514 9.375 9 9.375C11.8649 9.375 14.3721 8.42764 15.75 7.01172V7.90723ZM9 0.75C12.7279 0.75 15.75 2.42893 15.75 4.5V4.90723C15.3506 6.58388 12.5483 8.15625 9 8.15625C5.4517 8.15625 2.64944 6.58388 2.25 4.90723V4.5C2.25 2.42893 5.27208 0.75 9 0.75Z" fill="#936CE7"/>
</svg>
