<svg width="24" height="24" viewBox="0 0 24 24" fill="none" xmlns="http://www.w3.org/2000/svg">
<path d="M14.417 15.5996C13.9012 18.8112 12.7877 20.9988 11.9951 20.999C11.2068 20.9983 10.0964 18.8108 9.58203 15.5996H14.417ZM7.75684 15.5996C8.05001 17.5918 8.57944 19.3159 9.26465 20.5771C6.78925 19.789 4.77952 17.9579 3.75 15.5996H7.75684ZM20.248 15.5996C19.2176 17.955 17.2072 19.7835 14.7314 20.5732C15.4173 19.3122 15.9486 17.5902 16.2422 15.5996H20.248ZM7.56348 10.2002C7.52262 10.7853 7.50001 11.3862 7.5 11.999C7.5 12.6124 7.52256 13.2142 7.56348 13.7998H3.18066C3.06269 13.2182 3 12.6164 3 12C3 11.3836 3.06269 10.7818 3.18066 10.2002H7.56348ZM14.6299 10.2002C14.6748 10.7796 14.7002 11.3809 14.7002 11.999C14.7002 12.6177 14.6749 13.2199 14.6299 13.7998H9.36914C9.32427 13.2199 9.2998 12.6177 9.2998 11.999C9.29983 11.3809 9.32433 10.7796 9.36914 10.2002H14.6299ZM20.8193 10.2002C20.9376 10.7818 21 11.3837 21 12C21 12.6163 20.9376 13.2182 20.8193 13.7998H16.4365C16.4775 13.2142 16.5 12.6124 16.5 11.999C16.5 11.3862 16.4775 10.7853 16.4365 10.2002H20.8193ZM9.26367 3.42188C8.57848 4.68335 8.04994 6.40798 7.75684 8.40039H3.75C4.77944 6.04227 6.78855 4.2101 9.26367 3.42188ZM11.9941 3C12.7868 3 13.9012 5.1885 14.417 8.40039H9.58203C10.0962 5.19023 11.2058 3.00227 11.9941 3ZM14.7324 3.42578C17.2079 4.21562 19.2176 6.04523 20.248 8.40039H16.2422C15.9486 6.40964 15.4183 4.68697 14.7324 3.42578Z" fill="#45B96E"/>
</svg>
