<svg width="24" height="24" viewBox="0 0 24 24" fill="none" xmlns="http://www.w3.org/2000/svg">
<path d="M17 3C18.1046 3 19 3.89543 19 5V18.5C19 19.6046 18.1046 20.5 17 20.5H7C5.89543 20.5 5 19.6046 5 18.5V4.40039C5 3.62719 5.62719 3 6.40039 3H17ZM7.22754 18.1143H14.3867V17.3184H7.22754V18.1143ZM7.22754 15.7275H16.7725V14.9316H7.22754V15.7275ZM7.22754 12.5459V13.3408H16.7725V12.5459H7.22754ZM11.6621 6.19141C11.4272 6.19141 11.2121 6.23694 11.0166 6.32812C10.8228 6.41935 10.6541 6.55147 10.5117 6.72461C10.3712 6.89764 10.2627 7.10702 10.1855 7.35254C10.1091 7.59405 10.0701 7.86855 10.0693 8.17578C10.07 8.48167 10.109 8.75634 10.1855 9C10.2644 9.24574 10.3752 9.45577 10.5176 9.62891C10.6599 9.79999 10.8278 9.93131 11.0215 10.0225C11.2169 10.1136 11.4321 10.1591 11.667 10.1592C11.9037 10.1592 12.1197 10.1137 12.3135 10.0225C12.5088 9.93127 12.6768 9.80001 12.8174 9.62891C12.958 9.45577 13.0673 9.24574 13.1445 9C13.221 8.75639 13.2582 8.48158 13.2588 8.17578C13.258 7.86855 13.2197 7.59405 13.1416 7.35254C13.0645 7.10698 12.9547 6.89766 12.8125 6.72461C12.6718 6.55147 12.5032 6.41935 12.3076 6.32812C12.1138 6.23694 11.8988 6.19141 11.6621 6.19141ZM7.22754 10.1045H9.74707V9.28906H7.99902V6.32812H7.22754V10.1045ZM15.2764 6.18164C15.0414 6.18164 14.8279 6.22598 14.6357 6.31348C14.4437 6.40097 14.2776 6.5278 14.1387 6.69531C13.9998 6.86279 13.8928 7.06876 13.8174 7.3125C13.7437 7.55628 13.7071 7.83485 13.707 8.14746L13.7139 8.14453C13.7139 8.45713 13.7519 8.73572 13.8291 8.97949C13.9063 9.22136 14.0159 9.42628 14.1582 9.59375C14.3022 9.76117 14.4741 9.88809 14.6729 9.97559C14.8717 10.0612 15.0923 10.1044 15.334 10.1045C15.6065 10.1045 15.8392 10.073 16.0312 10.0098C16.2234 9.94647 16.3811 9.8707 16.5029 9.7832C16.6244 9.69406 16.7142 9.61133 16.7725 9.53516V7.92383H15.2959V8.52148H16.001V9.24121C15.9735 9.27099 15.9342 9.30342 15.8828 9.33691C15.8331 9.36856 15.7669 9.39563 15.6846 9.41797C15.604 9.4403 15.5026 9.45117 15.3809 9.45117C15.2351 9.45117 15.1068 9.42304 14.9971 9.36719C14.8876 9.3114 14.7951 9.2287 14.7197 9.11914C14.646 9.00744 14.5905 8.86998 14.5527 8.70801C14.515 8.54431 14.4961 8.35655 14.4961 8.14453L14.4893 8.14258C14.4893 7.92848 14.5069 7.74009 14.543 7.57812C14.579 7.41628 14.6317 7.28069 14.7002 7.1709C14.7688 7.06106 14.8527 6.97773 14.9521 6.92188C15.0533 6.86418 15.1683 6.83497 15.2969 6.83496C15.453 6.83496 15.58 6.86416 15.6777 6.92188C15.7772 6.97956 15.8531 7.05979 15.9062 7.16211C15.9594 7.2645 15.9958 7.3847 16.0146 7.52246H16.7637C16.738 7.26192 16.669 7.03109 16.5576 6.83008C16.4479 6.62722 16.2883 6.46902 16.0791 6.35547C15.8698 6.24005 15.6023 6.18164 15.2764 6.18164ZM11.6621 6.8584C11.7925 6.8584 11.9086 6.8876 12.0098 6.94531C12.1108 7.00115 12.1964 7.08476 12.2666 7.19629C12.3369 7.30792 12.3898 7.44568 12.4258 7.60938C12.4614 7.77158 12.4791 7.95955 12.4795 8.17285C12.4792 8.38485 12.4615 8.57293 12.4258 8.7373C12.3898 8.90113 12.3381 9.04073 12.2695 9.1543C12.2009 9.26589 12.1158 9.35053 12.0146 9.4082C11.9135 9.4659 11.7973 9.49414 11.667 9.49414C11.5369 9.4941 11.4214 9.46572 11.3203 9.4082C11.2192 9.35054 11.1328 9.26587 11.0625 9.1543C10.9922 9.04073 10.9393 8.90113 10.9033 8.7373C10.8676 8.57294 10.8489 8.38483 10.8486 8.17285C10.849 7.95955 10.8677 7.77158 10.9033 7.60938C10.9393 7.44576 10.9911 7.3079 11.0596 7.19629C11.1298 7.08473 11.2151 7.00116 11.3145 6.94531C11.4157 6.8876 11.5317 6.8584 11.6621 6.8584ZM13.2588 8.17578C13.2588 8.17871 13.2598 8.18164 13.2598 8.18457V8.16797C13.2598 8.17053 13.2588 8.17322 13.2588 8.17578Z" fill="#D75EF5"/>
</svg>
