<svg width="24" height="24" viewBox="0 0 24 24" fill="none" xmlns="http://www.w3.org/2000/svg">
<path d="M12 2.94971C16.9706 2.94971 21 6.97914 21 11.9497C20.9999 14.6315 19.8268 17.0392 17.9658 18.688L16.8027 17.5308C17.9754 16.5208 18.8263 15.1474 19.1807 13.5854H17.3184V11.9497H19.3633C19.3633 10.4209 18.8971 9.00062 18.0996 7.82373L16.6279 9.29639L15.4707 8.13916L17.0332 6.57666C15.9036 5.51798 14.4409 4.81075 12.8184 4.63135V7.04053H11.1816V4.63135C9.5588 4.81078 8.0955 5.51771 6.96582 6.57666L8.52832 8.13916L7.37207 9.29639L5.89941 7.82471C5.10236 9.00138 4.63672 10.4214 4.63672 11.9497H6.68164V13.5854H4.81934C5.17668 15.1605 6.03861 16.5438 7.22656 17.5562L6.06641 18.7163C4.18679 17.0669 3.00014 14.6469 3 11.9497C3 6.97914 7.02944 2.94971 12 2.94971ZM13.9609 9.64893C14.2859 9.32416 14.8215 9.32423 15.1465 9.64893C15.4604 9.9628 15.4604 10.4639 15.1465 10.7778L13.5791 12.3442C13.6152 12.4793 13.6367 12.6207 13.6367 12.7671C13.6367 13.6708 12.9037 14.4038 12 14.4038C11.0963 14.4038 10.3633 13.6708 10.3633 12.7671C10.3635 11.8635 11.0964 11.1313 12 11.1313C12.1457 11.1313 12.2864 11.1522 12.4209 11.188L13.9609 9.64893Z" fill="#B443DD"/>
</svg>
