<svg width="24" height="24" viewBox="0 0 24 24" fill="none" xmlns="http://www.w3.org/2000/svg">
<path d="M9.60034 4.74902H11.2V3.14941H12.7996V4.74902H14.4001V3.14941H15.9998V4.74902H17.2C18.3042 4.74923 19.1998 5.64475 19.2 6.74902V7.94922H20.7996V9.5498H19.2V11.1494H20.7996V12.749H19.2V14.3496H20.7996V15.9492H19.2V17.1494C19.1997 18.2537 18.3042 19.1492 17.2 19.1494H15.9998V20.749H14.4001V19.1494H12.7996V20.749H11.2V19.1494H9.60034V20.749H7.99976V19.1494H6.79956C5.69531 19.1492 4.79977 18.2537 4.79956 17.1494V15.9492H3.19995V14.3496H4.79956V12.749H3.19995V11.1494H4.79956V9.5498H3.19995V7.94922H4.79956V6.74902C4.79975 5.64475 5.6953 4.74925 6.79956 4.74902H7.99976V3.14941H9.60034V4.74902ZM7.39917 6.34863C6.8475 6.34906 6.39957 6.79696 6.39917 7.34863V7.94922L6.40015 9.5498H6.39917V11.1494V12.749V14.3496H6.40015L6.39917 15.9492V16.5488C6.39917 17.1008 6.84725 17.5484 7.39917 17.5488H16.5994C17.1517 17.5488 17.5994 17.1011 17.5994 16.5488V7.34863C17.599 6.79669 17.1514 6.34863 16.5994 6.34863H15.9998V6.34961H14.4001V6.34863H12.7996V6.34961L11.2 6.34863H9.60034V6.34961L7.99976 6.34863H7.39917ZM16.7996 16.749H7.19995V7.14941H16.7996V16.749ZM9.50562 10.5088C9.32028 10.5089 9.14623 10.5408 8.98413 10.6045C8.82197 10.6674 8.67814 10.761 8.55444 10.8848C8.43078 11.0078 8.3334 11.1594 8.26343 11.3379C8.1944 11.5166 8.15998 11.7226 8.15991 11.9541C8.15991 12.2495 8.21693 12.5054 8.32983 12.7197C8.44369 12.9338 8.602 13.099 8.80444 13.2148C9.00722 13.3307 9.2432 13.3887 9.51147 13.3887C9.7519 13.3887 9.96541 13.3409 10.1511 13.2451C10.3375 13.1484 10.4838 13.0096 10.5896 12.8291C10.6962 12.6476 10.7498 12.4282 10.7498 12.1729V11.7842H9.5271V12.3262H10.0271C10.0252 12.4044 10.007 12.4736 9.97144 12.5322C9.93378 12.594 9.87654 12.6421 9.80054 12.6758C9.72523 12.7094 9.63012 12.7266 9.51636 12.7266C9.38738 12.7265 9.27906 12.6948 9.19214 12.6328C9.10549 12.5708 9.03971 12.4816 8.99585 12.3652C8.95201 12.2485 8.92945 12.1073 8.92944 11.9434C8.9295 11.7812 8.95308 11.6422 8.99878 11.5273C9.04543 11.4126 9.11312 11.3237 9.20093 11.2627C9.2896 11.2019 9.39698 11.1709 9.52222 11.1709C9.58038 11.1709 9.63403 11.1778 9.68237 11.1914C9.73156 11.2041 9.77457 11.2246 9.81128 11.251C9.84876 11.2764 9.88094 11.3076 9.90601 11.3447C9.93104 11.3811 9.94902 11.4245 9.96069 11.4727H10.7175C10.7031 11.3324 10.6628 11.2025 10.5964 11.085C10.5301 10.9675 10.4421 10.8659 10.3337 10.7803C10.2261 10.6937 10.1014 10.6266 9.96069 10.5801C9.82085 10.5327 9.66873 10.5088 9.50562 10.5088ZM13.4597 12.3438C13.4598 12.557 13.5096 12.7416 13.6082 12.8975C13.7077 13.0525 13.8467 13.173 14.0251 13.2578C14.2037 13.3418 14.4124 13.3838 14.6501 13.3838C14.886 13.3838 15.0937 13.3417 15.2722 13.2578C15.4507 13.173 15.5897 13.0525 15.6892 12.8975C15.7895 12.7416 15.8395 12.557 15.8396 12.3438V10.5479H15.0916V12.2773C15.0916 12.364 15.0726 12.4423 15.0349 12.5107C14.9972 12.5781 14.945 12.6307 14.8787 12.6689C14.8123 12.7072 14.7362 12.7265 14.6501 12.7266C14.5649 12.7265 14.4879 12.7073 14.4207 12.6689C14.3547 12.6307 14.3029 12.5778 14.2654 12.5107C14.2277 12.4423 14.2087 12.364 14.2087 12.2773V10.5479H13.4597V12.3438ZM11.0359 13.3516H11.7839V12.5195H12.199C12.4088 12.5195 12.5928 12.4797 12.7498 12.4004C12.9076 12.321 13.0299 12.2073 13.1169 12.0605C13.2048 11.9137 13.2487 11.7396 13.2488 11.5391C13.2488 11.3404 13.2059 11.1662 13.1208 11.0176C13.0357 10.8691 12.9165 10.753 12.7634 10.6709C12.6102 10.5889 12.4305 10.548 12.2263 10.5479H11.0359V13.3516ZM12.0486 11.1562C12.1361 11.1563 12.2115 11.1713 12.2732 11.2021C12.3357 11.2322 12.3836 11.2767 12.4167 11.334C12.4506 11.3904 12.4685 11.459 12.4685 11.5391C12.4684 11.6183 12.4508 11.6878 12.4167 11.7461C12.3836 11.8041 12.3356 11.849 12.2732 11.8809C12.2114 11.9118 12.1362 11.9276 12.0486 11.9277H11.7839V11.1562H12.0486Z" fill="#0054DA"/>
</svg>
