<svg width="24" height="24" viewBox="0 0 24 24" fill="none" xmlns="http://www.w3.org/2000/svg">
<path d="M11.2002 7.5H9.59961V9.00098H14.4004V7.5H12.7998V3H17.5996V7.5H16V9.00098H18.2227C19.2002 9.00118 20 9.6761 20 10.501V13.501C19.9997 14.3256 19.2 15.0008 18.2227 15.001H16V16.5H17.5996V21H12.7998V16.5H14.4004V15.001H9.59961V16.5H11.2002V21H6.40039V16.5H8V15.001H5.77734C4.79996 15.0008 4.00032 14.3256 4 13.501V10.501C4 9.6761 4.79976 9.00118 5.77734 9.00098H8V7.5H6.40039V3H11.2002V7.5ZM8 19.5H9.59961V18H8V19.5ZM14.4004 19.5H16V18H14.4004V19.5ZM6.40039 12.751H8V11.251H6.40039V12.751ZM8.7998 12.751H10.4004V11.251H8.7998V12.751ZM11.2002 12.751H12.7998V11.251H11.2002V12.751ZM8 6H9.59961V4.5H8V6ZM14.4004 6H16V4.5H14.4004V6Z" fill="#FF9900"/>
</svg>
