<svg width="20" height="20" viewBox="0 0 20 20" fill="none" xmlns="http://www.w3.org/2000/svg">
<path d="M10.8333 2.54688C12.965 2.78253 14.8269 3.91101 16.0374 5.55078L18.2434 4.27832L19.0774 5.72168L16.8713 6.99512C17.2743 7.91534 17.5002 8.9311 17.5002 10C17.5002 11.0686 17.2741 12.0839 16.8713 13.0039L19.0774 14.2783L18.2434 15.7217L16.0374 14.4482C14.8269 16.0883 12.9652 17.2164 10.8333 17.4521V20H9.16626V17.4521C7.03413 17.2163 5.17246 16.0877 3.96216 14.4473L1.7561 15.7217L0.923096 14.2783L3.1272 13.0049C2.72436 12.0848 2.50024 11.0687 2.50024 10C2.50024 8.931 2.72413 7.91443 3.1272 6.99414L0.923096 5.72168L1.7561 4.27832L3.96216 5.55176C5.17249 3.91164 7.03436 2.7827 9.16626 2.54688V0H10.8333V2.54688ZM5.41724 13.6074C6.32268 14.7561 7.65004 15.5554 9.16626 15.7725V12.3545C8.87404 12.251 8.60704 12.0961 8.37622 11.8984L5.41724 13.6074ZM11.6223 11.8984C11.3916 12.0958 11.1253 12.2511 10.8333 12.3545V15.7725C12.3494 15.5556 13.6758 14.7559 14.5813 13.6074L11.6223 11.8984ZM4.58325 7.83496C4.31543 8.50448 4.16724 9.23481 4.16724 10C4.16724 10.7649 4.31565 11.4948 4.58325 12.1641L7.54321 10.4541C7.51615 10.3067 7.50024 10.1552 7.50024 10C7.50024 9.84381 7.51581 9.69123 7.54321 9.54297L4.58325 7.83496ZM12.4563 9.54199C12.4838 9.69058 12.5002 9.84344 12.5002 10C12.5002 10.1556 12.4835 10.3074 12.4563 10.4551L15.4153 12.1641C15.683 11.4946 15.8333 10.7651 15.8333 10C15.8333 9.23461 15.6832 8.50462 15.4153 7.83496L12.4563 9.54199ZM9.16626 4.22656C7.65025 4.44352 6.32269 5.24319 5.41724 6.3916L8.3772 8.09961C8.60775 7.90255 8.87456 7.74778 9.16626 7.64453V4.22656ZM10.8333 7.64453C11.1248 7.74765 11.3909 7.90279 11.6213 8.09961L14.5813 6.3916C13.6758 5.24346 12.3492 4.44337 10.8333 4.22656V7.64453Z" fill="#4485FF"/>
</svg>
