<svg width="24" height="24" viewBox="0 0 24 24" fill="none" xmlns="http://www.w3.org/2000/svg">
<path fill-rule="evenodd" clip-rule="evenodd" d="M20 4H4V6V18V20H20V18V6V4ZM18.4 18.4H5.59998V8H18.4V18.4ZM13.6 12.0002C13.6 12.8802 12.88 13.6002 12 13.6002C11.12 13.6002 10.4 12.8802 10.4 12.0002C10.4 11.1202 11.12 10.4002 12 10.4002C12.88 10.4002 13.6 11.1202 13.6 12.0002ZM8.79997 16.8002H15.2V16.0002C15.2 14.9362 13.064 14.4002 12 14.4002C10.936 14.4002 8.79997 14.9362 8.79997 16.0002V16.8002ZM15.2 5.59983H14.4V6.39983H15.2V5.59983ZM16 5.59983H16.8V6.39983H16V5.59983ZM18.4 5.59983H17.6V6.39983H18.4V5.59983Z" fill="#8BCD00"/>
</svg>
